<svg width="15" height="9" viewBox="0 0 15 9" fill="none" xmlns="http://www.w3.org/2000/svg">
<g id="image" clip-path="url(#clip0_1_422)">
<path id="Vector" d="M9.15328 0.549253C8.77925 0.196341 8.28446 -0.000240326 7.77022 -0.000240326C7.25598 -0.000240326 6.76119 0.196341 6.38716 0.549253L1.36296 5.57345C1.1752 5.75741 1.02604 5.97699 0.924212 6.21932C0.822382 6.46166 0.769931 6.72188 0.769931 6.98474C0.769931 7.2476 0.822382 7.50781 0.924212 7.75015C1.02604 7.99248 1.1752 8.21206 1.36296 8.39603C1.54692 8.58378 1.7665 8.73295 2.00884 8.83478C2.25117 8.93661 2.51139 8.98906 2.77425 8.98906C3.03711 8.98906 3.29733 8.93661 3.53966 8.83478C3.782 8.73295 4.00158 8.58378 4.18554 8.39603L7.79845 4.78312L11.3549 8.39603C11.5389 8.58378 11.7584 8.73295 12.0008 8.83478C12.2431 8.93661 12.5033 8.98906 12.7662 8.98906C13.029 8.98906 13.2893 8.93661 13.5316 8.83478C13.7739 8.73295 13.9935 8.58378 14.1775 8.39603C14.3652 8.21206 14.5144 7.99248 14.6162 7.75015C14.7181 7.50781 14.7705 7.2476 14.7705 6.98474C14.7705 6.72188 14.7181 6.46166 14.6162 6.21932C14.5144 5.97699 14.3652 5.75741 14.1775 5.57345L9.15328 0.549253Z" fill="#6504B5"/>
</g>
<defs>
<clipPath id="clip0_1_422">
<rect width="14" height="8.9871" fill="white" transform="matrix(-1 0 0 -1 14.77 8.98855)"/>
</clipPath>
</defs>
</svg>
