<svg width="26" height="71" viewBox="0 0 26 71" fill="none" xmlns="http://www.w3.org/2000/svg">
<g id="icon-favorite" clip-path="url(#clip0_1_1157)">
<path id="Vector" d="M23.9756 26.9629C23.3443 26.2972 22.5841 25.767 21.7413 25.4047C20.8984 25.0424 19.9906 24.8556 19.0732 24.8556C18.1557 24.8556 17.2479 25.0424 16.4051 25.4047C15.5622 25.767 14.802 26.2972 14.1707 26.9629C13.7089 27.4477 13.3175 27.9951 13.0081 28.5889C12.6983 27.9954 12.307 27.4481 11.8455 26.9629C11.2143 26.2972 10.454 25.767 9.61118 25.4047C8.76833 25.0424 7.86051 24.8556 6.94309 24.8556C6.02567 24.8556 5.11785 25.0424 4.275 25.4047C3.43215 25.767 2.67192 26.2972 2.04065 26.9629C0.736199 28.3363 0.00889587 30.1582 0.00889587 32.0524C0.00889587 33.9465 0.736199 35.7684 2.04065 37.1418L10.0163 45.4182C10.4026 45.8225 10.867 46.1444 11.3812 46.3643C11.8954 46.5841 12.4489 46.6975 13.0081 46.6975C13.5674 46.6975 14.1209 46.5841 14.6351 46.3643C15.1493 46.1444 15.6136 45.8225 16 45.4182L23.9756 37.1418C25.2801 35.7684 26.0074 33.9465 26.0074 32.0524C26.0074 30.1582 25.2801 28.3363 23.9756 26.9629Z" fill="#6504B5"/>
</g>
<defs>
<clipPath id="clip0_1_1157">
<rect width="26" height="70" fill="white" transform="translate(0 0.779999)"/>
</clipPath>
</defs>
</svg>
