<svg width="26" height="26" viewBox="0 0 26 26" fill="none" xmlns="http://www.w3.org/2000/svg">
<g id="IconFavorite" clip-path="url(#clip0_1_103)">
<path id="Vector" d="M22.8988 4.85906C22.3634 4.29445 21.722 3.84085 21.0113 3.52417C20.3005 3.20749 19.5344 3.03393 18.7565 3.01341C17.9787 2.99288 17.2045 3.1258 16.478 3.40457C15.7516 3.68333 15.0871 4.10248 14.5227 4.63807L14.3017 4.85906C13.8969 5.28426 13.5537 5.76418 13.2823 6.28478C13.0109 5.76418 12.6678 5.28426 12.2629 4.85906C11.7273 4.29233 11.0851 3.83693 10.373 3.51898C9.66099 3.20103 8.89318 3.0268 8.11365 3.00627C7.33413 2.98573 6.55821 3.11931 5.83043 3.39934C5.10264 3.67936 4.43731 4.10032 3.87258 4.63807L3.6516 4.85906C2.50783 6.06329 1.87012 7.66073 1.87012 9.32156C1.87012 10.9824 2.50783 12.5798 3.6516 13.7841L10.6448 21.041C11.3059 21.7382 12.2162 22.1453 13.1766 22.1733C14.137 22.2014 15.0695 21.8481 15.7702 21.1907L15.8843 21.0695L22.8988 13.7841C24.0794 12.599 24.7422 10.9943 24.7422 9.32156C24.7422 7.64878 24.0794 6.04416 22.8988 4.85906Z" stroke="#F53646" stroke-width="2.13858"/>
</g>
<defs>
<clipPath id="clip0_1_103">
<rect width="25" height="25" fill="white" transform="translate(0.800049 0.0900269)"/>
</clipPath>
</defs>
</svg>
