<svg width="121" height="121" viewBox="0 0 121 121" fill="none" xmlns="http://www.w3.org/2000/svg">
<g id="IconLogofaceColorGray" clip-path="url(#clip0_1_72)">
<g id="Group">
<path id="Vector" d="M60.7636 120.69C27.6781 120.69 0.780029 93.7755 0.780029 60.7064C0.780029 27.6374 27.6946 0.690002 60.7636 0.690002C93.8326 0.690002 120.747 27.6045 120.747 60.6736C120.747 93.7426 93.8614 120.69 60.7636 120.69ZM60.7636 11.372C51.0127 11.372 41.4807 14.2635 33.3731 19.6808C25.2655 25.0981 18.9464 32.798 15.2149 41.8067C11.4834 50.8154 10.507 60.7283 12.4094 70.2918C14.3117 79.8554 19.0072 88.6401 25.9021 95.535C32.7971 102.43 41.5818 107.126 51.1453 109.028C60.7089 110.93 70.6218 109.954 79.6305 106.222C88.6392 102.491 96.339 96.1716 101.756 88.064C107.174 79.9565 110.065 70.4245 110.065 60.6736C110.047 47.6037 104.846 35.0743 95.6047 25.8325C86.3628 16.5907 73.8335 11.3905 60.7636 11.372Z" fill="white"/>
<path id="Vector_2" d="M77.5384 44.0836C81.5909 44.0836 84.8761 40.7984 84.8761 36.7459C84.8761 32.6933 81.5909 29.4081 77.5384 29.4081C73.4859 29.4081 70.2007 32.6933 70.2007 36.7459C70.2007 40.7984 73.4859 44.0836 77.5384 44.0836Z" fill="white"/>
<path id="Vector_3" d="M44.0833 79.7656C52.1071 79.7656 55.5089 74.971 55.5089 67.2964C55.5089 63.9069 52.8096 61.0557 52.8096 57.3827C52.7894 56.2755 52.9932 55.1757 53.4087 54.1492C53.8243 53.1228 54.443 52.1909 55.2278 51.4096C56.0125 50.6283 56.9471 50.0137 57.9754 49.6027C59.0036 49.1917 60.1044 48.9928 61.2114 49.0179C66.3224 49.0179 69.5023 53.3359 69.5023 57.3704C69.5023 61.2323 66.7948 63.7714 66.7948 67.3498C66.7948 75.0285 69.9173 79.7615 78.1876 79.7615C84.8639 79.7615 88.1137 76.146 91.0594 71.5939C92.0331 70.0861 93.6642 68.8782 95.4308 68.8782C98.0972 68.8782 99.5804 70.7886 99.5804 72.8962C99.5804 77.9168 90.9526 89.4862 77.9822 89.4862C73.5122 89.4862 65.8335 88.5577 61.158 81.2981C56.8688 87.8716 50.3528 89.4821 44.4201 89.4821C30.8335 89.4821 22.6946 77.4649 22.6946 72.888C22.6934 72.3558 22.7987 71.8286 23.0043 71.3377C23.2099 70.8467 23.5117 70.4019 23.8919 70.0294C24.272 69.6568 24.7229 69.3642 25.218 69.1686C25.713 68.973 26.2422 68.8784 26.7743 68.8905C27.6862 68.9411 28.5717 69.2152 29.3527 69.6888C30.1337 70.1624 30.7861 70.8209 31.2525 71.6062C34.1736 76.2857 37.7234 79.7656 44.0833 79.7656Z" fill="white"/>
</g>
</g>
<defs>
<clipPath id="clip0_1_72">
<rect width="120" height="120" fill="white" transform="translate(0.780029 0.690002)"/>
</clipPath>
</defs>
</svg>
