<svg width="69" height="71" viewBox="0 0 69 71" fill="none" xmlns="http://www.w3.org/2000/svg">
<g id="IconStrokedPaw" clip-path="url(#clip0_1_222)">
<path id="Vector" d="M17.157 31.3611C17.157 25.7657 13.3917 21.2204 8.77357 21.2204C4.15539 21.2213 0.390137 25.7657 0.390137 31.363C0.390137 36.9585 4.15539 41.4873 8.77357 41.4873C13.3917 41.4873 17.157 36.9429 17.157 31.3621V31.3611ZM8.77357 38.6488C5.71648 38.6488 3.23837 35.3799 3.23837 31.3456C3.23837 27.3122 5.71551 24.0433 8.77357 24.0433C11.8307 24.0433 14.2767 27.3268 14.2767 31.3621C14.2767 35.3954 11.8307 38.6488 8.77357 38.6488ZM68.3901 31.3456C68.3901 25.7647 64.6249 21.2213 60.0067 21.2213C55.3885 21.2213 51.6233 25.7647 51.6233 31.3621C51.6021 31.5601 51.6232 31.7603 51.6851 31.9495C51.7471 32.1388 51.8485 32.3127 51.9827 32.4598C52.1173 32.6085 52.2816 32.7273 52.465 32.8085C52.6484 32.8896 52.8468 32.9313 53.0474 32.9309C53.2478 32.9308 53.4459 32.8889 53.6292 32.8079C53.8125 32.727 53.977 32.6087 54.1121 32.4608C54.2459 32.3132 54.3471 32.1391 54.4091 31.9498C54.471 31.7605 54.4923 31.5602 54.4715 31.3621C54.4715 27.3433 56.9487 24.0589 60.0067 24.0589C63.0638 24.0589 65.5419 27.3277 65.5419 31.3611C65.5419 35.3799 63.0648 38.6488 60.0067 38.6488C59.6278 38.6483 59.264 38.7973 58.9945 39.0636C58.8619 39.1949 58.7567 39.3512 58.6848 39.5234C58.613 39.6957 58.576 39.8804 58.576 40.067C58.576 40.2537 58.613 40.4384 58.6848 40.6107C58.7567 40.7829 58.8619 40.9392 58.9945 41.0705C59.2639 41.3371 59.6277 41.4866 60.0067 41.4863C64.6249 41.4863 68.3901 36.942 68.3901 31.3456ZM44.8495 23.6285C49.4677 23.6285 53.2329 19.0842 53.2329 13.4878C53.2329 7.89139 49.4512 3.34705 44.8495 3.34705C40.2469 3.34705 36.4661 7.89139 36.4661 13.4878C36.4661 19.0842 40.1993 23.6285 44.8495 23.6285ZM44.8495 6.18556C47.9066 6.18556 50.3847 9.45345 50.3847 13.4878C50.3847 17.5221 47.8745 20.79 44.8495 20.79C41.8245 20.79 39.3143 17.5221 39.3143 13.4878C39.3143 9.45345 41.7759 6.18556 44.8495 6.18556ZM23.9308 23.6285C28.5489 23.6285 32.3142 19.0842 32.3142 13.4878C32.3142 7.89139 28.581 3.34705 23.9308 3.34705C19.2805 3.34705 15.5473 7.89139 15.5473 13.4878C15.5473 19.0842 19.3291 23.6285 23.9308 23.6285ZM23.9308 6.18556C26.9888 6.18556 29.466 9.45345 29.466 13.4878C29.466 17.5221 27.0044 20.79 23.9308 20.79C20.8581 20.79 18.3956 17.5221 18.3956 13.4878C18.3956 9.45345 20.9057 6.18556 23.9308 6.18556ZM54.5036 49.0285L45.6539 33.6741C42.725 28.6188 38.7178 25.8288 34.3901 25.8288C30.0615 25.8288 26.0553 28.6188 23.1264 33.6731L14.2767 49.012C13.6897 50.0244 13.2048 51.0927 12.8293 52.2012C12.2832 53.6092 12.0096 55.1081 12.023 56.6183C12.0579 59.6628 13.2584 62.5782 15.3773 64.7646C17.5076 66.9629 20.391 68.2734 23.448 68.4328H23.9308C25.539 68.4381 27.1318 68.1179 28.6131 67.4914C29.6758 67.0776 31.4457 66.2801 33.2798 65.4194L33.9404 65.6904C37.5177 67.3333 41.3824 68.2593 45.3158 68.4163C48.3775 68.2696 51.2703 66.9695 53.4127 64.7773C55.5433 62.5965 56.7572 59.6822 56.8049 56.6338C56.7688 55.1558 56.5027 53.6924 56.0161 52.2964C55.624 51.1586 55.1172 50.0637 54.5036 49.0285ZM45.3003 65.5943C42.3826 65.5 39.5053 64.8848 36.8041 63.7777L37.3511 63.5057L38.9597 62.7723C39.0666 62.711 39.1637 62.6362 39.2492 62.5488L40.8589 61.7357L42.3714 60.9702C42.7065 60.7993 42.9601 60.504 43.0767 60.1484C43.1345 59.9723 43.1569 59.7864 43.1428 59.6015C43.1286 59.4167 43.0781 59.2364 42.9941 59.0711C42.8235 58.7363 42.5279 58.4822 42.1713 58.3639C41.8132 58.2447 41.4226 58.2705 41.0833 58.4358L39.4746 59.2003C36.9809 60.4602 32.8135 62.5809 31.0591 63.2988L30.8988 63.4105C29.5631 64.0322 28.3245 64.5742 27.5513 64.8773C26.3385 65.4169 25.0155 65.6625 23.6899 65.5943H23.5441C21.2202 65.4752 19.0267 64.4837 17.4018 62.8179C15.7853 61.1607 14.8631 58.9485 14.8236 56.6338C14.8274 56.5966 14.8274 56.5592 14.8236 56.5221C14.83 55.3811 15.0483 54.2512 15.4677 53.1901C15.7873 52.2478 16.2021 51.3395 16.7063 50.4798L25.5404 35.0924C27.9379 30.9473 31.0591 28.7149 34.3416 28.7149C37.625 28.7149 40.7782 30.9949 43.1427 35.0924L52.041 50.4468C52.5442 51.3084 52.959 52.2157 53.2805 53.1571C53.6856 54.2742 53.9139 55.4477 53.9566 56.6338C53.9223 58.9392 53.0104 61.1448 51.4067 62.8014C49.7941 64.4666 47.6146 65.4637 45.3003 65.5943Z" fill="white"/>
</g>
<defs>
<clipPath id="clip0_1_222">
<rect width="68" height="70" fill="white" transform="translate(0.390137 0.889893)"/>
</clipPath>
</defs>
</svg>
