<svg width="61" height="59" viewBox="0 0 61 59" fill="none" xmlns="http://www.w3.org/2000/svg">
<g id="image" clip-path="url(#clip0_1_956)">
<path id="Vector" d="M60.1143 14.7104L30.8355 0.40104C30.6938 0.332642 30.5384 0.297119 30.381 0.297119C30.2236 0.297119 30.0682 0.332642 29.9264 0.40104L0.63517 14.7104C0.516203 14.7663 0.409636 14.8454 0.321759 14.9431C0.233882 15.0409 0.166478 15.1552 0.123526 15.2794C0.0805737 15.4036 0.0629444 15.5352 0.0716789 15.6663C0.0804133 15.7975 0.115334 15.9255 0.17438 16.043C0.299393 16.2814 0.51247 16.4616 0.768299 16.5453C1.02413 16.629 1.30253 16.6097 1.54429 16.4913L30.3747 2.4061L59.2052 16.4913C59.3492 16.5591 59.5068 16.5932 59.666 16.5909C59.8532 16.5917 60.037 16.541 60.1973 16.4444C60.3577 16.3477 60.4884 16.2089 60.5751 16.043C60.6342 15.9255 60.6691 15.7975 60.6778 15.6663C60.6866 15.5352 60.6689 15.4036 60.626 15.2794C60.583 15.1552 60.5156 15.0409 60.4277 14.9431C60.3399 14.8454 60.2333 14.7663 60.1143 14.7104ZM50.8363 45.7701C50.0518 45.4146 49.1616 45.3701 48.3455 45.6456L37.5606 48.1363C37.6536 47.2204 37.4053 46.3024 36.8632 45.5584C36.2641 44.7473 35.3689 44.2057 34.3724 44.0515L24.8702 41.9966H24.7456C23.6835 41.7044 22.571 41.6444 21.4836 41.8206C20.3962 41.9968 19.3595 42.4051 18.444 43.0178C16.9122 44.0515 9.37771 48.9333 9.29053 48.9832C9.17944 49.0538 9.08366 49.146 9.00885 49.2543C8.93405 49.3626 8.88174 49.4849 8.85503 49.6138C8.82832 49.7427 8.82775 49.8756 8.85336 50.0048C8.87896 50.1339 8.93022 50.2566 9.0041 50.3655C9.09781 50.5038 9.22403 50.617 9.37168 50.6952C9.51932 50.7734 9.68389 50.8141 9.85095 50.8139C10.0494 50.8148 10.244 50.7586 10.4114 50.652C10.7227 50.4527 18.058 45.6705 19.5898 44.6617C20.2956 44.1893 21.099 43.8824 21.9399 43.7637C22.7809 43.6451 23.6378 43.718 24.4468 43.9767H24.5339L33.9739 46.0192C34.2195 46.0491 34.4565 46.1286 34.6706 46.2528C34.8846 46.3769 35.0713 46.5432 35.2193 46.7415C35.3609 46.9324 35.4625 47.1499 35.5181 47.381C35.5738 47.6121 35.5822 47.852 35.5431 48.0865C35.4605 48.5589 35.1972 48.9805 34.8088 49.2618C34.4205 49.5432 33.9379 49.6621 33.4633 49.5934L27.2364 48.348C27.1047 48.3147 26.9677 48.308 26.8333 48.3283C26.699 48.3486 26.5701 48.3955 26.4541 48.4662C26.3381 48.537 26.2374 48.6301 26.1579 48.7403C26.0784 48.8504 26.0217 48.9753 25.991 49.1077C25.9638 49.237 25.9626 49.3704 25.9874 49.5001C26.0123 49.6299 26.0626 49.7534 26.1357 49.8635C26.2087 49.9736 26.3029 50.0681 26.4127 50.1414C26.5226 50.2148 26.6459 50.2656 26.7756 50.2908L33.0025 51.5362C33.2097 51.5529 33.418 51.5529 33.6252 51.5362C34.6637 51.5313 35.658 51.1148 36.3899 50.378L48.8437 47.4887H48.9558C49.2795 47.3591 49.6407 47.3591 49.9645 47.4887C50.1234 47.5569 50.2664 47.6575 50.3844 47.784C50.5023 47.9105 50.5926 48.0602 50.6495 48.2235C50.7273 48.3853 50.7692 48.562 50.7723 48.7416C50.7754 48.9211 50.7397 49.0992 50.6675 49.2636C50.5953 49.428 50.4885 49.5749 50.3542 49.6942C50.22 49.8134 50.0616 49.9023 49.8898 49.9546L36.5269 54.7119C35.8694 54.9854 35.1351 55.0119 34.4596 54.7866L23.2512 52.4453C23.0142 52.3958 22.7674 52.4311 22.5538 52.5449L14.82 56.5924C14.7037 56.6527 14.6006 56.7355 14.5167 56.8362C14.4329 56.9368 14.3699 57.0532 14.3317 57.1785C14.2934 57.3038 14.2805 57.4354 14.2938 57.5658C14.3071 57.6961 14.3463 57.8224 14.409 57.9374C14.5405 58.1725 14.7585 58.347 15.0167 58.4238C15.2749 58.5006 15.5529 58.4735 15.7914 58.3484L23.2637 54.4628L34.0984 56.7294C35.1663 57.0399 36.308 56.9784 37.3364 56.555L50.6121 51.8226C51.2302 51.6076 51.769 51.211 52.158 50.6847C52.547 50.1584 52.7681 49.527 52.7923 48.873C52.8166 48.219 52.6428 47.5729 52.2938 47.0193C51.9448 46.4656 51.4368 46.0303 50.8363 45.7701ZM17.51 23.9636C17.4379 24.949 17.7591 25.9229 18.4032 26.6721C19.0474 27.4213 19.9621 27.8848 20.9473 27.9612C21.9234 27.8724 22.8256 27.4036 23.4592 26.6558C24.0929 25.9079 24.4073 24.941 24.3347 23.9636C24.4068 22.9781 24.0856 22.0042 23.4415 21.255C22.7973 20.5058 21.8825 20.0423 20.8974 19.9659C19.9213 20.0547 19.0191 20.5235 18.3854 21.2714C17.7518 22.0192 17.4374 22.9861 17.51 23.9636ZM22.6534 23.9636C22.7131 24.4936 22.5705 25.0266 22.2542 25.4561C21.9379 25.8855 21.4711 26.1798 20.9473 26.28C20.4142 26.1909 19.9354 25.9014 19.6089 25.4707C19.2824 25.0401 19.133 24.5008 19.1913 23.9636C19.132 23.4317 19.2762 22.8972 19.5951 22.4674C19.9139 22.0377 20.3837 21.7446 20.9099 21.6472C21.4338 21.7473 21.9005 22.0416 22.2169 22.471C22.5332 22.9005 22.6758 23.4335 22.6161 23.9636H22.6534ZM39.8396 27.9612C40.8247 27.8848 41.7394 27.4213 42.3836 26.6721C43.0278 25.9229 43.349 24.949 43.2768 23.9636C43.349 22.9781 43.0278 22.0042 42.3836 21.255C41.7394 20.5058 40.8247 20.0423 39.8396 19.9659C38.8567 20.0454 37.9452 20.5103 37.3036 21.2591C36.6621 22.008 36.3426 22.9801 36.4148 23.9636C36.3426 24.947 36.6621 25.9191 37.3036 26.668C37.9452 27.4168 38.8567 27.8817 39.8396 27.9612ZM39.8396 21.6347C40.3682 21.7322 40.8399 22.0271 41.159 22.4596C41.4782 22.8921 41.6209 23.4297 41.5582 23.9636C41.6179 24.4936 41.4754 25.0266 41.159 25.4561C40.8427 25.8855 40.3759 26.1798 39.8521 26.28C39.3259 26.1825 38.8561 25.8895 38.5373 25.4597C38.2184 25.0299 38.0741 24.4954 38.1334 23.9636C38.0704 23.4315 38.2114 22.8954 38.528 22.4632C38.8446 22.031 39.3133 21.735 39.8396 21.6347Z" fill="white"/>
<path id="Vector_2" d="M34.2354 13.4774C33.2503 13.5538 32.3356 14.0174 31.6914 14.7666C31.0472 15.5158 30.7261 16.4896 30.7982 17.4751C30.7261 18.4605 31.0472 19.4344 31.6914 20.1836C32.3356 20.9328 33.2503 21.3963 34.2354 21.4727C35.2205 21.3963 36.1353 20.9328 36.7794 20.1836C37.4236 19.4344 37.7448 18.4605 37.6727 17.4751C37.7448 16.4896 37.4236 15.5158 36.7794 14.7666C36.1353 14.0174 35.2205 13.5538 34.2354 13.4774ZM34.2354 19.8039C33.7115 19.7037 33.2448 19.4095 32.9285 18.98C32.6121 18.5506 32.4696 18.0176 32.5293 17.4875C32.4696 16.9575 32.6121 16.4245 32.9285 15.995C33.2448 15.5656 33.7115 15.2713 34.2354 15.1711C34.7593 15.2713 35.2261 15.5656 35.5424 15.995C35.8587 16.4245 36.0013 16.9575 35.9416 17.4875C36.0013 18.0176 35.8587 18.5506 35.5424 18.98C35.2261 19.4095 34.7593 19.7037 34.2354 19.8039ZM26.5141 13.4774C25.529 13.5538 24.6143 14.0174 23.9701 14.7666C23.3259 15.5158 23.0047 16.4896 23.0769 17.4751C23.0047 18.4605 23.3259 19.4344 23.9701 20.1836C24.6143 20.9328 25.529 21.3963 26.5141 21.4727C27.5014 21.3995 28.4193 20.9373 29.0661 20.1877C29.713 19.4382 30.0358 18.4625 29.9638 17.4751C30.0358 16.4876 29.713 15.512 29.0661 14.7624C28.4193 14.0129 27.5014 13.5507 26.5141 13.4774ZM26.5141 19.8039C25.9902 19.7037 25.5234 19.4095 25.2071 18.98C24.8908 18.5506 24.7482 18.0176 24.8079 17.4875C24.7482 16.9575 24.8908 16.4245 25.2071 15.995C25.5234 15.5656 25.9902 15.2713 26.5141 15.1711C27.038 15.2713 27.5047 15.5656 27.8211 15.995C28.1374 16.4245 28.28 16.9575 28.2203 17.4875C28.28 18.0176 28.1374 18.5506 27.8211 18.98C27.5047 19.4095 27.038 19.7037 26.5141 19.8039ZM25.9163 24.636L22.6285 30.1904C22.3978 30.5843 22.21 31.0018 22.0681 31.4357C21.8493 31.9864 21.7393 32.5743 21.7443 33.1668C21.7721 34.3695 22.258 35.5162 23.1029 36.3727C23.9477 37.2291 25.0877 37.7306 26.2899 37.7747H26.5265C27.1536 37.7784 27.7754 37.6599 28.3572 37.426L28.9052 37.2516C29.3752 37.0697 29.8714 36.9645 30.3748 36.9403C30.8782 36.9641 31.3745 37.0693 31.8443 37.2516L32.4545 37.4011C33.0821 37.5906 33.7302 37.7035 34.3849 37.7373H34.4471C35.6526 37.69 36.7944 37.184 37.6393 36.323C38.4841 35.4619 38.9683 34.3106 38.9928 33.1045C38.9769 32.5354 38.8719 31.9723 38.6814 31.4357C38.532 31.0027 38.3402 30.5856 38.1085 30.1904L34.8208 24.6235C34.4118 23.7708 33.7833 23.0423 32.9998 22.5127C32.2163 21.983 31.306 21.6714 30.3623 21.6097C29.4195 21.6747 28.5109 21.9892 27.7296 22.521C26.9484 23.0528 26.3226 23.7827 25.9163 24.636ZM33.3886 25.4828L36.6764 31.0497C36.8508 31.3422 36.9967 31.6508 37.1122 31.9713C37.2397 32.3361 37.3111 32.7183 37.324 33.1045C37.3062 33.8669 37.0013 34.5945 36.4702 35.1417C35.9392 35.6889 35.2211 36.0155 34.4596 36.0561C33.9571 36.0273 33.4596 35.9395 32.9776 35.7946L32.4421 35.6327C31.7843 35.3621 31.0851 35.2063 30.3748 35.1719C29.689 35.1933 29.0115 35.328 28.3697 35.5704L27.8342 35.7323H27.7346C27.3404 35.8968 26.9162 35.9774 26.4892 35.9689H26.3771C25.6089 35.9407 24.8802 35.6213 24.339 35.0754C23.7978 34.5296 23.4846 33.7982 23.4629 33.0298C23.4881 32.6631 23.581 32.3042 23.7369 31.9713C23.8503 31.65 23.9964 31.3412 24.1728 31.0497L27.4606 25.4828C27.7263 24.897 28.1388 24.3898 28.658 24.0101C29.1773 23.6305 29.7858 23.3914 30.4246 23.3159C31.0532 23.3982 31.6506 23.6392 32.1604 24.0161C32.6702 24.393 33.0757 24.8935 33.3388 25.4704L33.3886 25.4828Z" fill="white"/>
</g>
<defs>
<clipPath id="clip0_1_956">
<rect width="60.6" height="58.1591" fill="white" transform="translate(0.0747528 0.301392)"/>
</clipPath>
</defs>
</svg>
