<svg width="13" height="8" viewBox="0 0 13 8" fill="none" xmlns="http://www.w3.org/2000/svg">
<g id="image" clip-path="url(#clip0_1_1191)">
<path id="Vector" d="M4.93878 7.49535C5.25938 7.79784 5.68349 7.96634 6.12427 7.96634C6.56505 7.96634 6.98915 7.79784 7.30975 7.49535L11.6162 3.1889C11.7771 3.03121 11.905 2.843 11.9923 2.63529C12.0796 2.42757 12.1245 2.20453 12.1245 1.97922C12.1245 1.75391 12.0796 1.53087 11.9923 1.32315C11.905 1.11544 11.7771 0.927225 11.6162 0.769542C11.4585 0.608607 11.2703 0.480754 11.0626 0.393471C10.8549 0.306188 10.6318 0.26123 10.4065 0.26123C10.1812 0.26123 9.95817 0.306188 9.75046 0.393471C9.54274 0.480754 9.35453 0.608607 9.19685 0.769542L6.10007 3.86632L3.05169 0.769542C2.894 0.608607 2.70579 0.480754 2.49808 0.393471C2.29036 0.306188 2.06732 0.26123 1.84201 0.26123C1.6167 0.26123 1.39366 0.306188 1.18594 0.393471C0.978225 0.480754 0.790014 0.608607 0.632331 0.769542C0.471396 0.927225 0.343543 1.11544 0.25626 1.32315C0.168978 1.53087 0.12402 1.75391 0.12402 1.97922C0.12402 2.20453 0.168978 2.42757 0.25626 2.63529C0.343543 2.843 0.471396 3.03121 0.632331 3.1889L4.93878 7.49535Z" fill="white"/>
</g>
<defs>
<clipPath id="clip0_1_1191">
<rect width="12" height="7.70323" fill="white" transform="translate(0.124268 0.261719)"/>
</clipPath>
</defs>
</svg>
