<svg width="22" height="23" viewBox="0 0 22 23" fill="none" xmlns="http://www.w3.org/2000/svg">
<g id="Item &#226;&#134;&#146; Link - Twitter &#226;&#134;&#146; SVG">
<path id="Vector" d="M19.7515 7.37407V7.95457C19.7515 13.9212 15.2104 20.7989 6.90715 20.7989C4.45793 20.7992 2.06028 20.0952 0 18.7709C0.358654 18.8109 0.719286 18.8305 1.08016 18.8297C3.1123 18.828 5.08468 18.142 6.67936 16.8824C5.73691 16.8647 4.82361 16.5526 4.06731 15.99C3.31101 15.4274 2.74957 14.6424 2.46159 13.7448C2.7402 13.7975 3.02306 13.8246 3.30661 13.8256C3.70881 13.8246 4.10909 13.7703 4.49699 13.664C3.47824 13.4578 2.5617 12.9067 1.90184 12.1037C1.24197 11.3006 0.879112 10.2946 0.874416 9.25517V9.21108C1.50786 9.56032 2.21609 9.75187 2.93921 9.76953C1.98415 9.13086 1.30821 8.15239 1.04886 7.0331C0.789516 5.91382 0.966237 4.73778 1.54309 3.74415C2.67514 5.13818 4.08771 6.27857 5.68908 7.09129C7.29045 7.904 9.04484 8.37087 10.8383 8.46158C10.6148 7.49405 10.7162 6.47983 11.1268 5.57569C11.5374 4.67155 12.2344 3.92783 13.1101 3.45948C13.9857 2.99114 14.9912 2.82425 15.9712 2.98462C16.9512 3.14498 17.8511 3.62367 18.5317 4.34669C19.54 4.14746 20.5068 3.77716 21.3901 3.25183C21.0539 4.29779 20.3488 5.18576 19.4061 5.75016C20.3027 5.63672 21.1771 5.38901 22 5.01536C21.3976 5.92973 20.636 6.72862 19.7515 7.37407Z" fill="white"/>
</g>
</svg>
