<svg width="101" height="101" viewBox="0 0 101 101" fill="none" xmlns="http://www.w3.org/2000/svg">
<g id="Dog%20Portrait.svg">
<path id="Vector" d="M51.0943 65.2045C51.0943 67.3685 51.0943 69.5325 51.0943 71.6505C51.6468 72.3411 53.5345 74.4591 56.6655 75.1037C59.382 75.6562 61.546 74.7354 62.651 74.2749C65.3215 73.1699 66.887 71.4203 67.5316 70.5455V43.2881C67.5316 34.2176 60.1647 26.8508 51.0943 26.8508C42.0238 26.8508 34.657 34.2176 34.657 43.2881V70.5915C35.3016 71.4203 36.867 73.216 39.5375 74.321C40.6425 74.7814 42.8066 75.6562 45.5231 75.1498C48.654 74.5512 50.5418 72.4332 51.0943 71.6965C51.0943 69.4865 51.0943 67.3685 51.0943 65.2045Z" stroke="#6504B5" stroke-width="2.88462" stroke-miterlimit="10"/>
<path id="Vector_2" d="M51.0948 65.8953C52.5189 65.8953 53.6733 64.7409 53.6733 63.3169C53.6733 61.8928 52.5189 60.7384 51.0948 60.7384C49.6708 60.7384 48.5164 61.8928 48.5164 63.3169C48.5164 64.7409 49.6708 65.8953 51.0948 65.8953Z" fill="#6504B5"/>
<path id="Vector_3" d="M57.5869 51.7595C59.011 51.7595 60.1653 50.6051 60.1653 49.1811C60.1653 47.7571 59.011 46.6027 57.5869 46.6027C56.1629 46.6027 55.0085 47.7571 55.0085 49.1811C55.0085 50.6051 56.1629 51.7595 57.5869 51.7595Z" fill="#6504B5"/>
<path id="Vector_4" d="M40.4585 30.3506C39.2614 29.8902 36.8211 29.4298 34.519 30.3506C32.4931 31.1794 31.342 32.6988 30.6974 33.5736C25.1723 41.2628 20.4299 49.5505 16.7004 58.2526C16.3321 59.0814 15.5033 61.0612 15.227 63.7317C15.0889 65.067 14.9508 66.218 15.3191 67.5993C16.1939 71.2367 19.2788 73.1705 19.8774 73.5389C23.1924 75.6108 26.5536 75.1964 27.5665 75.0122C30.6514 74.5058 33.8744 71.1907 34.6571 70.5" stroke="#6504B5" stroke-width="2.88462" stroke-miterlimit="10"/>
<path id="Vector_5" d="M61.822 30.3506C63.0191 29.8902 65.4594 29.4298 67.7615 30.3506C69.7874 31.1794 70.9385 32.6988 71.5831 33.5736C77.1082 41.2628 81.8507 49.5505 85.5801 58.2526C85.9485 59.0814 86.7773 61.0612 87.0535 63.7317C87.1916 65.067 87.3298 66.218 86.9614 67.5993C86.0866 71.2367 83.0017 73.1705 82.4032 73.5389C79.0881 75.6108 75.727 75.1964 74.714 75.0122C71.6291 74.5058 68.4061 71.1907 67.6234 70.5" stroke="#6504B5" stroke-width="2.88462" stroke-miterlimit="10"/>
</g>
</svg>
