<svg width="40" height="41" viewBox="0 0 40 41" fill="none" xmlns="http://www.w3.org/2000/svg">
<g id="IconSearchBackgroundPrimary" clip-path="url(#clip0_1_19)">
<path id="Vector" d="M0 5.5C0 4.17392 0.526784 2.90215 1.46447 1.96447C2.40215 1.02678 3.67392 0.5 5 0.5L35 0.5C36.3261 0.5 37.5979 1.02678 38.5355 1.96447C39.4732 2.90215 40 4.17392 40 5.5V35.5C40 36.8261 39.4732 38.0979 38.5355 39.0355C37.5979 39.9732 36.3261 40.5 35 40.5H5C3.67392 40.5 2.40215 39.9732 1.46447 39.0355C0.526784 38.0979 0 36.8261 0 35.5L0 5.5Z" fill="#6504B5"/>
<g id="Group">
<path id="Vector_2" d="M17.6101 10.835C18.8701 10.8145 20.1143 11.1171 21.2241 11.714C22.4275 12.3758 23.4242 13.3577 24.1041 14.551C24.7849 15.7456 25.123 17.1049 25.0812 18.4793C25.0394 19.8537 24.6193 21.1899 23.8671 22.341C23.1163 23.4904 22.0621 24.4097 20.8211 24.997C19.6772 25.5253 18.417 25.7516 17.1608 25.6545C15.9046 25.5573 14.6942 25.1399 13.6451 24.442C12.5944 23.7435 11.7394 22.7883 11.1611 21.667C10.5821 20.5441 10.2985 19.2923 10.337 18.0295C10.3754 16.7667 10.7348 15.5345 11.3811 14.449C12.0261 13.3649 12.9372 12.4634 14.0281 11.83C15.1176 11.198 16.3507 10.8554 17.6101 10.835ZM15.2141 22.038C15.9568 22.5422 16.8325 22.8144 17.7301 22.82C18.3284 22.8206 18.921 22.7034 19.474 22.475C20.027 22.2467 20.5296 21.9116 20.9531 21.489C21.8103 20.6336 22.2944 19.474 22.3001 18.263C22.3001 17.363 22.0341 16.483 21.5361 15.734C21.0391 14.9861 20.3317 14.4022 19.5031 14.056C18.6749 13.7098 17.7625 13.6177 16.8818 13.7913C16.0012 13.9649 15.192 14.3964 14.5571 15.031C13.92 15.6662 13.485 16.4756 13.3067 17.3575C13.1284 18.2393 13.2148 19.1542 13.5551 19.987C13.8934 20.8198 14.4711 21.5335 15.2151 22.038H15.2141ZM25.2531 23.756L28.2401 26.718C28.375 26.8499 28.4822 27.0074 28.5556 27.1811C28.629 27.3549 28.6671 27.5416 28.6677 27.7302C28.6682 27.9189 28.6312 28.1058 28.5589 28.28C28.4865 28.4542 28.3802 28.6123 28.2461 28.745C28.1127 28.8785 27.9544 28.9844 27.78 29.0567C27.6057 29.129 27.4188 29.1662 27.2301 29.1662C27.0414 29.1662 26.8545 29.129 26.6802 29.0567C26.5059 28.9844 26.3475 28.8785 26.2141 28.745L23.2441 25.8C24.0131 25.224 24.6905 24.5348 25.2531 23.756Z" fill="white"/>
</g>
</g>
<defs>
<clipPath id="clip0_1_19">
<rect width="40" height="40" fill="white" transform="translate(0 0.5)"/>
</clipPath>
</defs>
</svg>
